PathFileType	4	(X/Y/Z)	/Users/niels/Desktop/University/Third Semester/Perception and Action/Exam/Gymnastics Motion Tracking/Code for Gym Tracking/Analyzed Data/Webcam_Backflip/temp_id5_4_trajectory_Sports2D/temp_id5_4_trajectory_Sports2D_px_person00.trc
DataRate	CameraRate	NumFrames	NumMarkers	Units	OrigDataRate	OrigDataStartFrame	OrigNumFrames
29.8125	29.8125	10	22	m	29.8125	100	160
Frame#	Time	Hip			RHip			RKnee			RAnkle			RBigToe			RSmallToe			RHeel			LHip			LKnee			LAnkle			LBigToe			LSmallToe			LHeel			Neck			Head			Nose			RShoulder			RElbow			RWrist			LShoulder			LElbow			LWrist		
		X1	Y1	Z1	X2	Y2	Z2	X3	Y3	Z3	X4	Y4	Z4	X5	Y5	Z5	X6	Y6	Z6	X7	Y7	Z7	X8	Y8	Z8	X9	Y9	Z9	X10	Y10	Z10	X11	Y11	Z11	X12	Y12	Z12	X13	Y13	Z13	X14	Y14	Z14	X15	Y15	Z15	X16	Y16	Z16	X17	Y17	Z17	X18	Y18	Z18	X19	Y19	Z19	X20	Y20	Z20	X21	Y21	Z21	X22	Y22	Z22
100	3.354297693920335	0.9713816294912913	-0.6054028692831797	0.0	0.9728867005406643	-0.6034106447059324	0.0	0.9897094602860899	-0.7060543821794799	0.0	0.9649526959882956	-0.8131685065935195	0.0	1.0008389515874085	-0.8259354048141032	0.0	0.9897547652353671	-0.8294730122322143	0.0	0.9578183959390971	-0.8266540064813297	0.0	0.9712953529825381	-0.6025960326528899	0.0	0.9851370661899012	-0.705029428591773	0.0	0.964058402502945	-0.8081428557765565	0.0	1.0012429461608412	-0.8211820964218322	0.0	0.9967354850929434	-0.8186863611004781	0.0	0.9537730611545279	-0.8206831027233263	0.0	0.9823622136691885	-0.45523664102238615	0.0	1.0021784594582384	-0.3912362393871908	0.0	1.016870984703188	-0.4256350634529942	0.0	0.9753280319520972	-0.4744846825030933	0.0	0.9695477979785341	-0.5457463020960553	0.0	0.982236210063562	-0.6086482034862725	0.0	0.9806973220112206	-0.4743415477151463	0.0	0.9902038996055297	-0.545264946385612	0.0	1.0096783550747184	-0.6003839726612478	0.0
101	3.3878406708595383	0.9730596221468538	-0.6115584067467487	0.0	0.9733148892857907	-0.6092393075948169	0.0	0.9864558250127488	-0.7119137335000683	0.0	0.9640638013269106	-0.8185515949631725	0.0	0.9987660182100627	-0.8293266624928067	0.0	0.9866337173690548	-0.8334720695864519	0.0	0.9579303827285479	-0.8312531360944665	0.0	0.9729235297771945	-0.6086124680511767	0.0	0.9837340088915633	-0.7107851418249086	0.0	0.96373127057181	-0.8131096191651411	0.0	0.9992214468728624	-0.8247099831231397	0.0	0.9959014762414619	-0.8217423918190205	0.0	0.9538409404401282	-0.8246189815363837	0.0	0.9833847114228204	-0.46011455416699604	0.0	1.003784544444977	-0.3974832218800051	0.0	1.018293364565788	-0.43117335079006947	0.0	0.9753941168532394	-0.47869669147576277	0.0	0.9618403397960851	-0.5473780522098839	0.0	0.9629785339714978	-0.6097573564888832	0.0	0.9812584876500718	-0.4790492085154271	0.0	0.9816584772378047	-0.5485449807403293	0.0	0.9882801251058863	-0.603111521639271	0.0
102	3.421383647798742	0.973831511762888	-0.6140364427044022	0.0	0.9729870864828345	-0.6115954110899454	0.0	0.9839490454748462	-0.7143064280148941	0.0	0.9633295777254346	-0.8206811577719729	0.0	0.997694481238136	-0.8298460237349523	0.0	0.9845386373137887	-0.8346461479403832	0.0	0.9576792051922197	-0.8329978591531975	0.0	0.9736747107785585	-0.6110730044956401	0.0	0.9824750133989908	-0.7130527450838708	0.0	0.96345465411782	-0.8146333058864297	0.0	0.9977137237350896	-0.8252515781813106	0.0	0.9954412345120341	-0.8219999088058582	0.0	0.9535757457076487	-0.8257205234627034	0.0	0.984634415919095	-0.4623395504785197	0.0	1.0064557361989708	-0.4004541359896986	0.0	1.020404849424138	-0.43392973682231756	0.0	0.9759542456677196	-0.47953044920870697	0.0	0.9549023450422002	-0.5444754342247216	0.0	0.9446137635801585	-0.6044360893329283	0.0	0.9815829658452456	-0.4803624358324282	0.0	0.9732512125442498	-0.5470704303796489	0.0	0.9661166348738895	-0.5996538458501309	0.0
103	3.454926624737945	0.9736969919045521	-0.6126830298818426	0.0	0.9721423499114318	-0.6103122699832622	0.0	0.9822770432304269	-0.7130151195447075	0.0	0.9628946627256856	-0.8196251675595313	0.0	0.9978066787483818	-0.8279151306826033	0.0	0.9839855510150656	-0.8332073099002711	0.0	0.9571609317475682	-0.8320844359963936	0.0	0.973617179263684	-0.6098012608322323	0.0	0.9813952318761732	-0.711647635564158	0.0	0.9633301079806741	-0.8127298138359343	0.0	0.9969672179471439	-0.8229899954463287	0.0	0.9952055506672517	-0.8198082368391726	0.0	0.9531093711003353	-0.8241769997736991	0.0	0.9860100190491254	-0.46154902458748115	0.0	1.009976834802434	-0.39980085146677385	0.0	1.0230304688942955	-0.4335957327593327	0.0	0.9770666176487731	-0.4769167112926685	0.0	0.9489251945222977	-0.5370993918944802	0.0	0.9279360549670211	-0.5927503418918009	0.0	0.9818238450512099	-0.47823169597957843	0.0	0.9656521281186882	-0.5409788138526901	0.0	0.9458233240848165	-0.5900141022528915	0.0
104	3.4884696016771484	0.972853030944717	-0.6078639636448552	0.0	0.9710949649764626	-0.6057057299299505	0.0	0.9812529939122242	-0.7083445114694135	0.0	0.9628224280414375	-0.8155246626182273	0.0	0.9988725515508878	-0.8239052625976739	0.0	0.9851140388160681	-0.8293466936424636	0.0	0.9565221086789729	-0.8285812226528899	0.0	0.9730079215462336	-0.6051024651370228	0.0	0.9804086348264234	-0.7068591334097452	0.0	0.9633812183065251	-0.8076524513515108	0.0	0.9968549959582904	-0.8181834617961172	0.0	0.9948154138596783	-0.8154703894865869	0.0	0.9525624395869932	-0.8201196152069397	0.0	0.9874323483053805	-0.4577158572203003	0.0	1.0141485827743288	-0.3957360372090311	0.0	1.0259694116018199	-0.4303218140409087	0.0	0.9787415065848676	-0.4711260579227732	0.0	0.9440490559079093	-0.5257391450394968	0.0	0.9135607746510608	-0.5755333476739198	0.0	0.9820705963493284	-0.4729353227700504	0.0	0.9591694762702658	-0.5307848047192103	0.0	0.9297583280962007	-0.5748542746513896	0.0
105	3.522012578616352	0.9715454418848457	-0.6002139546257284	0.0	0.9700381479082891	-0.5983183586391365	0.0	0.9805764791541408	-0.700991512761202	0.0	0.9630978752540237	-0.808680445842187	0.0	1.0005672421943554	-0.8181420720120359	0.0	0.987622267615697	-0.8233883713397117	0.0	0.9559547238435304	-0.8225419063395408	0.0	0.9720990880364696	-0.5975084491314875	0.0	0.9794110496383786	-0.6993298538183517	0.0	0.9635423857159866	-0.7999433167082382	0.0	0.9971387507020542	-0.8111955961155597	0.0	0.9942734915878348	-0.8091797467938145	0.0	0.9520139520244744	-0.8136915777288041	0.0	0.988846924132545	-0.4511891976690429	0.0	1.0187853589315428	-0.3889319163269903	0.0	1.0289989073403867	-0.42461015699299876	0.0	0.9808832350466299	-0.46275025277157433	0.0	0.9402923782139051	-0.5112891767178316	0.0	0.9018334823649746	-0.554163730082429	0.0	0.982299448012955	-0.46494033421580366	0.0	0.9537540388299237	-0.5172344702022549	0.0	0.9188551150066544	-0.555328853639691	0.0
106	3.555555555555555	0.9699678402085145	-0.5904890495872847	0.0	0.9689643947579452	-0.5888140598149705	0.0	0.9800140447563014	-0.6918290055010979	0.0	0.9636656777727823	-0.7997087085409551	0.0	1.002614591739865	-0.8111018966901602	0.0	0.9908434038028592	-0.8159750290220766	0.0	0.9556520338128949	-0.8143308898669427	0.0	0.9709892770390294	-0.5876861996548521	0.0	0.978328212005796	-0.6899095486348317	0.0	0.9637202753055509	-0.7904717211689498	0.0	0.9976651524280035	-0.8026502040969288	0.0	0.9939406870770361	-0.8012926365131775	0.0	0.9515742517462591	-0.8052939466832808	0.0	0.9902136588274632	-0.4426438697759579	0.0	1.0236416567778777	-0.38032382027987127	0.0	1.0318905053852945	-0.41714316967421855	0.0	0.9832721450298241	-0.45261522370768353	0.0	0.9374949617138368	-0.49492464779828527	0.0	0.8927800166427928	-0.5302625229808033	0.0	0.9824892237047286	-0.45490002027148	0.0	0.9493707803432321	-0.5012927776075602	0.0	0.9123452237393936	-0.5329707818607797	0.0
107	3.5890985324947584	0.96825803649525	-0.5795728959116477	0.0	0.9677688438884363	-0.5780622777195213	0.0	0.9794873360901103	-0.6817328661506812	0.0	0.9644766050271195	-0.7895624105454139	0.0	1.004668975208924	-0.803528624384381	0.0	0.9939929896963001	-0.8080011291700627	0.0	0.955736445649906	-0.8048075761157558	0.0	0.9696183784457751	-0.5765317959814199	0.0	0.9771165187253706	-0.6795451786466321	0.0	0.9638868673068739	-0.7803577683723639	0.0	0.9983227013099492	-0.793513964164227	0.0	0.9940341483614805	-0.7926008478525921	0.0	0.9514500139212357	-0.7957779712557653	0.0	0.9914952146947212	-0.43296477766204106	0.0	1.028388180757194	-0.3708775884704891	0.0	1.034471911600727	-0.4086259317902189	0.0	0.9856336811198648	-0.44165560691756456	0.0	0.9353442178792932	-0.4778875791911119	0.0	0.8860814282618652	-0.5054886931223412	0.0	0.9826996654033504	-0.44369616239548404	0.0	0.9461414366257979	-0.4841017730159752	0.0	0.908434666082506	-0.5095564985709033	0.0
108	3.622641509433962	0.9664958160615338	-0.5684239401705833	0.0	0.9663353081316911	-0.5670776142541822	0.0	0.979055957716468	-0.6714676887731544	0.0	0.9655152211440753	-0.7793682253692594	0.0	1.0064125011414196	-0.7962692595536102	0.0	0.9965279320667446	-0.8003566114527468	0.0	0.9562601414040941	-0.7951397083772652	0.0	0.9678743655246885	-0.5651057162587693	0.0	0.9758496802723305	-0.6691333162358191	0.0	0.964137116628953	-0.7707294456653566	0.0	0.9990403788335384	-0.7848766394629043	0.0	0.9945003085030765	-0.7841920003371575	0.0	0.9518830293006387	-0.78627848869702	0.0	0.99265100397875	-0.42310029658247633	0.0	1.03266824916164	-0.36145893143993507	0.0	1.0366821270501627	-0.39972976406777005	0.0	0.9877521684290437	-0.430801959653456	0.0	0.9334819534375097	-0.46132862629824384	0.0	0.8811477340088025	-0.4814502307417063	0.0	0.9830066349400286	-0.4323527326658543	0.0	0.9440836140723614	-0.46691218135509044	0.0	0.9054839553684056	-0.48693745023068963	0.0
109	3.656184486373165	0.9646783719813077	-0.5579122763587544	0.0	0.9645672846314287	-0.5567680696193509	0.0	0.9788763385322109	-0.6616220784308967	0.0	0.9667863288453754	-0.7701102660376274	0.0	1.0077696368170181	-0.789943449268828	0.0	0.9983436465527045	-0.7936593430415388	0.0	0.9572165384058656	-0.7863686070828693	0.0	0.9656679518054626	-0.5543812744428448	0.0	0.9747803462398441	-0.6593575339798733	0.0	0.964623898764001	-0.7623886920456069	0.0	0.9998398707201563	-0.7775434893148124	0.0	0.9952182474934943	-0.7770008457787451	0.0	0.9529778209704379	-0.7777650457829787	0.0	0.9936205744828078	-0.4139452478966643	0.0	1.0362418322525397	-0.3528212055713367	0.0	1.0385422677499612	-0.39116289830250056	0.0	0.9895325589191224	-0.420895437958735	0.0	0.9316596273673763	-0.44624557221929084	0.0	0.8773189267055532	-0.4596758084329333	0.0	0.9833965370114084	-0.4218464575761695	0.0	0.9429134963189123	-0.4509717623720955	0.0	0.9028429757955578	-0.4668905775287143	0.0
